<svg xmlns="http://www.w3.org/2000/svg" xmlns:xlink="http://www.w3.org/1999/xlink" width="500" zoomAndPan="magnify" viewBox="0 0 375 374.999991" height="500" preserveAspectRatio="xMidYMid meet" version="1.0"><defs><filter x="0%" y="0%" width="100%" height="100%" id="4531cf82fa"><feColorMatrix values="0 0 0 0 1 0 0 0 0 1 0 0 0 0 1 0 0 0 1 0" color-interpolation-filters="sRGB"/></filter><g/><mask id="8a56f71dae"><g filter="url(#4531cf82fa)"><rect x="-37.5" width="450" fill="#000000" y="-37.499999" height="449.999989" fill-opacity="0.68"/></g></mask><clipPath id="0154b77ab3"><path d="M 0 0 L 230.160156 0 L 230.160156 375 L 0 375 Z M 0 0 " clip-rule="nonzero"/></clipPath><clipPath id="0b3e429605"><rect x="0" width="231" y="0" height="375"/></clipPath><clipPath id="86028a355b"><rect x="0" width="231" y="0" height="375"/></clipPath><mask id="7bb9c5f5aa"><g filter="url(#4531cf82fa)"><rect x="-37.5" width="450" fill="#000000" y="-37.499999" height="449.999989" fill-opacity="0.84"/></g></mask><clipPath id="2c6c30399a"><path d="M 0.121094 0.480469 L 162 0.480469 L 162 362.398438 L 0.121094 362.398438 Z M 0.121094 0.480469 " clip-rule="nonzero"/></clipPath><clipPath id="34ac2bee05"><rect x="0" width="162" y="0" height="363"/></clipPath><clipPath id="6cad1448c9"><rect x="0" width="162" y="0" height="363"/></clipPath></defs><g mask="url(#8a56f71dae)"><g transform="matrix(1, 0, 0, 1, 0, 0)"><g clip-path="url(#86028a355b)"><g clip-path="url(#0154b77ab3)"><g transform="matrix(1, 0, 0, 1, 0, 0)"><g clip-path="url(#0b3e429605)"><g fill="#6d28d9" fill-opacity="1"><g transform="translate(0.0000045, 302.515225)"><g><path d="M 120.65625 -113.09375 L 208.21875 -113.09375 L 208.21875 0 L 178.984375 0 L 174.703125 -26.234375 C 158.535156 -5.035156 136.429688 5.5625 108.390625 5.5625 C 80.335938 5.5625 57.394531 -4.441406 39.5625 -24.453125 C 21.738281 -44.472656 12.828125 -71.070312 12.828125 -104.25 C 12.828125 -137.4375 22.003906 -164.222656 40.359375 -184.609375 C 58.710938 -205.003906 83.71875 -215.203125 115.375 -215.203125 C 142.46875 -215.203125 164.097656 -208.378906 180.265625 -194.734375 C 196.429688 -181.097656 205.460938 -164.390625 207.359375 -144.609375 L 163.71875 -144.609375 C 161.0625 -155.066406 155.523438 -163.410156 147.109375 -169.640625 C 138.691406 -175.867188 128.875 -178.984375 117.65625 -178.984375 C 98.925781 -178.984375 84.210938 -172.28125 73.515625 -158.875 C 62.816406 -145.46875 57.46875 -127.117188 57.46875 -103.828125 C 57.46875 -80.628906 62.625 -62.773438 72.9375 -50.265625 C 83.257812 -37.765625 98.453125 -31.515625 118.515625 -31.515625 C 129.828125 -31.515625 140.1875 -35.175781 149.59375 -42.5 C 159.007812 -49.820312 165.617188 -61.5625 169.421875 -77.71875 L 120.65625 -77.71875 Z M 120.65625 -113.09375 "/></g></g></g></g></g></g></g></g></g><g mask="url(#7bb9c5f5aa)"><g transform="matrix(1, 0, 0, 1, 213, 6)"><g clip-path="url(#6cad1448c9)"><g clip-path="url(#2c6c30399a)"><g><g clip-path="url(#34ac2bee05)"><g fill="#c4b5fd" fill-opacity="1"><g transform="translate(0.184121, 300.147299)"><g><path d="M 80.75 2.40625 C 67.695312 2.40625 56.195312 -0.203125 46.25 -5.421875 C 36.3125 -10.640625 28.578125 -18.019531 23.046875 -27.5625 C 17.523438 -37.101562 14.765625 -48.101562 14.765625 -60.5625 L 14.765625 -150.359375 C 14.765625 -162.804688 17.523438 -173.800781 23.046875 -183.34375 C 28.578125 -192.882812 36.3125 -200.265625 46.25 -205.484375 C 56.195312 -210.710938 67.695312 -213.328125 80.75 -213.328125 C 93.8125 -213.328125 105.363281 -210.765625 115.40625 -205.640625 C 125.445312 -200.523438 133.226562 -193.34375 138.75 -184.09375 C 144.28125 -174.851562 147.046875 -164.3125 147.046875 -152.46875 L 147.046875 -145.53125 C 147.046875 -144.53125 146.691406 -143.675781 145.984375 -142.96875 C 145.285156 -142.269531 144.429688 -141.921875 143.421875 -141.921875 L 115.703125 -141.921875 C 114.703125 -141.921875 113.847656 -142.269531 113.140625 -142.96875 C 112.441406 -143.675781 112.09375 -144.53125 112.09375 -145.53125 L 112.09375 -152.46875 C 112.09375 -161.5 109.226562 -168.878906 103.5 -174.609375 C 97.769531 -180.335938 90.1875 -183.203125 80.75 -183.203125 C 71.507812 -183.203125 64.023438 -180.238281 58.296875 -174.3125 C 52.578125 -168.382812 49.71875 -160.597656 49.71875 -150.953125 L 49.71875 -59.96875 C 49.71875 -50.320312 52.679688 -42.535156 58.609375 -36.609375 C 64.535156 -30.679688 72.21875 -27.71875 81.65625 -27.71875 C 90.894531 -27.71875 98.273438 -30.378906 103.796875 -35.703125 C 109.328125 -41.023438 112.09375 -48.304688 112.09375 -57.546875 L 112.09375 -81.359375 C 112.09375 -82.359375 111.585938 -82.859375 110.578125 -82.859375 L 83.15625 -82.859375 C 82.15625 -82.859375 81.300781 -83.207031 80.59375 -83.90625 C 79.894531 -84.613281 79.546875 -85.472656 79.546875 -86.484375 L 79.546875 -108.46875 C 79.546875 -109.476562 79.894531 -110.332031 80.59375 -111.03125 C 81.300781 -111.738281 82.15625 -112.09375 83.15625 -112.09375 L 143.421875 -112.09375 C 144.429688 -112.09375 145.285156 -111.738281 145.984375 -111.03125 C 146.691406 -110.332031 147.046875 -109.476562 147.046875 -108.46875 L 147.046875 -61.46875 C 147.046875 -41.582031 141.019531 -25.960938 128.96875 -14.609375 C 116.914062 -3.265625 100.84375 2.40625 80.75 2.40625 Z M 80.75 2.40625 "/></g></g></g></g></g></g></g></g></g></svg>